<svg xmlns="http://www.w3.org/2000/svg" xmlns:xlink="http://www.w3.org/1999/xlink" version="1.1" x="0px" y="0px" width="100px" height="100px" viewBox="0 0 100 100" enable-background="new 0 0 100 100" xml:space="preserve">
<g id="Captions">
</g>
<g id="Your_Icon">
	<circle cx="32.541" cy="17.423" r="6.909"/>
	<path d="M66.793,41.431c-1.126-1.822-3.356-2.668-5.429-1.869c0,0,2.564,0.887,3.473,3.452c0.909,2.567-0.279,5.033-0.279,5.033   c2.072-0.797,3.229-2.933,2.842-5.04l32.393-13.021c0.167-0.064,0.251-0.252,0.187-0.421c-0.064-0.167-0.253-0.251-0.421-0.187   v-0.001L66.793,41.431z"/>
	<path d="M9.839,20.382C8.962,19.123,6.002,8.763,6.002,8.763C5.54,7.138,3.848,6.194,2.223,6.656   c-1.624,0.462-2.567,2.155-2.106,3.779c0,0,3.344,12.049,3.57,12.921s0.977,2.545,2.624,3.48l8.385,4.594   c4.352,2.472,4.773,4.711,4.388,7.572c0,0-0.58,5.288-1.332,9.229c-1.35,7.076-9.83,22.673-10.043,23.132   c-0.975,2.101-1.119,3.545-1.119,4.854L6.541,89.945c-0.033,1.907,1.486,3.481,3.394,3.516c1.908,0.033,3.48-1.485,3.515-3.394   c0,0,0.871-13.226,0.993-14.646c0.123-1.42,3.147-5.412,5.088-8.417c2.472-3.826,5.146-4.53,6.887-4.53   c2.609,0,5.123,1.709,7.242,3.612c2.867,2.576,6.021,5.598,6.566,7.339s0.307,16.229,0.307,16.229   c-0.192,1.898,1.188,3.594,3.087,3.788c1.897,0.193,3.594-1.188,3.787-3.085l0.799-17.367c0.124-1.85-0.627-3.547-1.968-4.887   L41.03,62.32c-3.471-3.789-6.623-7.897-6.348-10.256s0.043-1.058,0.613-5.302c0.571-4.243,3.197-6.156,6.551-1.967l3.662,4.936   c0.922,1.437,3.004,2.922,5.605,2.015l12.057-4.647c0.129-0.047,0.25-0.104,0.367-0.165c0.224-0.823,0.419-2.127-0.039-3.438   c-0.404-1.163-1.244-1.922-1.911-2.367c-0.183,0.026-0.366,0.063-0.553,0.116l-9.921,3.568c-0.479,0.236-0.967,0.016-1.296-0.494   c-1.494-2.313-5.173-8.746-5.294-8.874c-3.533-5.671-8.877-6.514-13.893-7.719c-5.014-1.206-6.574-1.649-12.357-3.862   C12.489,21.652,10.714,21.64,9.839,20.382z"/>
</g>
</svg>